<svg id="Layer_4" data-name="Layer 4" xmlns="http://www.w3.org/2000/svg" viewBox="0 0 2412.68 587.05"><circle cx="247.77" cy="293.52" r="191.44" style="fill:#3374ba"/><circle cx="380.93" cy="176.34" r="110.99" style="fill:#fff;opacity:0.75"/><path d="M600.88,315V187.19h26V314.35c0,38.21,20.68,62.33,59.2,62.33s59.2-24.12,59.2-62.33V187.19h26V314.67c0,52-28.51,85.19-85.2,85.19S600.88,366.35,600.88,315Z" style="fill:#3374ba"/><path d="M921.3,396.1v-99c0-26.63-13.47-35.08-33.83-35.08-18.48,0-36,11.27-44.79,23.49V396.1H819.19V244.82h23.49v21.92c10.65-12.53,31.32-25.68,53.88-25.68,31.63,0,48.23,16,48.23,48.86V396.1Z" style="fill:#3374ba"/><path d="M1101.4,396.1V373.55c-11.27,15.35-29.75,26.31-51.05,26.31-39.47,0-67.34-30.07-67.34-79.24,0-48.24,27.56-79.56,67.34-79.56,20.36,0,38.84,10,51.05,26.62V187.19h23.49V396.1Zm0-41V286.48c-8.46-13.16-26.62-24.43-45.41-24.43-30.39,0-48.55,25.05-48.55,58.57s18.16,58.26,48.55,58.26C1074.78,378.88,1092.94,368.23,1101.4,355.07Z" style="fill:#3374ba"/><path d="M1163.11,320.3c0-43.85,31.32-79.24,74.54-79.24,45.73,0,72.67,35.71,72.67,81.12v5.95H1187.85c1.88,28.51,21.93,52.31,54.5,52.31,17.23,0,34.77-6.89,46.67-19.11l11.28,15.35c-15,15-35.4,23.18-60.14,23.18C1195.37,399.86,1163.11,367.6,1163.11,320.3Zm74.23-59.82c-32.26,0-48.24,27.25-49.49,50.43h99.29C1286.83,288.35,1271.79,260.48,1237.34,260.48Z" style="fill:#3374ba"/><path d="M1348.22,396.1V244.82h23.49v24.43c12.22-16,29.76-27.56,50.43-27.56V265.8a41.8,41.8,0,0,0-9.4-.94c-14.41,0-34.14,11.91-41,24.12V396.1Z" style="fill:#3374ba"/><path d="M1438.42,376.06l12.22-16.92c10,11.59,29.13,21.61,49.8,21.61,23.18,0,35.71-11,35.71-26,0-36.65-93.65-14.1-93.65-70.16,0-23.5,20.35-43.54,56.37-43.54,25.69,0,43.85,9.71,56.07,21.92l-11,16.29c-9.09-11-25.69-19.1-45.11-19.1-20.67,0-33.51,10.33-33.51,23.8,0,33.2,93.65,11.28,93.65,70.16,0,25.37-20.36,45.73-59.51,45.73C1474.76,399.86,1453.77,392.34,1438.42,376.06Z" style="fill:#3374ba"/><path d="M1601.92,364.47v-99h-25.05V244.82h25.05V203.47h23.5v41.35h30.69v20.67h-30.69v94c0,11.27,5,19.42,15.34,19.42,6.58,0,12.84-2.82,16-6.27l6.89,17.54c-6,5.64-14.41,9.71-28.19,9.71C1613.2,399.86,1601.92,387,1601.92,364.47Z" style="fill:#3374ba"/><path d="M1783.9,396.1V378.88c-12.53,13.78-29.75,21-50.11,21-25.69,0-52.94-17.23-52.94-50.11,0-33.83,27.25-49.81,52.94-49.81,20.67,0,37.9,6.58,50.11,20.68V293.37c0-20.36-16.28-31.95-38.21-31.95-18.17,0-32.89,6.58-46.36,21l-11-16.28c16.29-16.92,35.71-25.06,60.45-25.06,32,0,58.57,14.41,58.57,51.05v104Zm0-32v-28.5c-9.08-12.53-25.06-18.79-41.66-18.79-21.92,0-37.27,13.78-37.27,33.2,0,19.11,15.35,32.89,37.27,32.89C1758.84,383,1774.82,376.68,1783.9,364.15Z" style="fill:#3374ba"/><path d="M1956.49,396.1v-99c0-26.63-13.47-35.08-33.83-35.08-18.48,0-36,11.27-44.79,23.49V396.1h-23.49V244.82h23.49v21.92c10.65-12.53,31.32-25.68,53.87-25.68,31.64,0,48.24,16,48.24,48.86V396.1Z" style="fill:#3374ba"/><path d="M2136.59,396.1V373.55c-11.28,15.35-29.76,26.31-51.06,26.31-39.46,0-67.34-30.07-67.34-79.24,0-48.24,27.56-79.56,67.34-79.56,20.36,0,38.84,10,51.06,26.62V187.19h23.49V396.1Zm0-41V286.48c-8.46-13.16-26.63-24.43-45.42-24.43-30.38,0-48.55,25.05-48.55,58.57s18.17,58.26,48.55,58.26C2110,378.88,2128.13,368.23,2136.59,355.07Z" style="fill:#3374ba"/><path d="M2217.09,195.33v60.76h-8.77V195.33H2188.9v-8.14h47.61v8.14ZM2306,256.09v-57l-23.49,57H2280l-23.49-57v57h-8.77v-68.9h13.47l20.05,50.11,20-50.11h13.47v68.9Z" style="fill:#3374ba"/><path d="M1643.35,514.89V442.67h8.12V470.5a21.74,21.74,0,0,1,17.65-9.21c13.64,0,23.28,10.83,23.28,27.5,0,17-9.64,27.4-23.28,27.4a22,22,0,0,1-17.65-9.1v7.8Zm23.71-6c10.62,0,16.9-8.55,16.9-20.14s-6.28-20.24-16.9-20.24a19.43,19.43,0,0,0-15.59,8.44V500.7C1654.29,505.25,1660.68,508.93,1667.06,508.93Z" style="fill:#6d6e71"/><path d="M1704,528a12.49,12.49,0,0,0,4.44.87c3.57,0,6-1.19,7.79-5.53l3.47-7.9-21.87-52.84h8.77L1724,505.47l17.32-42.88h8.88L1724,525.5c-3.14,7.58-8.44,10.5-15.37,10.61a26,26,0,0,1-6-.76Z" style="fill:#6d6e71"/><path d="M1782.6,504.71l5.31-6.82a30.54,30.54,0,0,0,22.73,10.29c12.89,0,17-6.93,17-12.46,0-18.62-42.76-8.33-42.76-34.1,0-11.91,10.61-20,24.79-20,11,0,19.6,3.68,25.66,10.07l-5.41,6.6c-5.42-6-13-8.66-20.9-8.66-8.66,0-14.83,4.65-14.83,11.48,0,16.24,42.77,6.92,42.77,33.89,0,10.5-7.15,21.22-26.64,21.22C1797.76,516.19,1788.56,511.42,1782.6,504.71Z" style="fill:#6d6e71"/><path d="M1847,488.69c0-15.49,10.5-27.4,26.09-27.4,9.53,0,15.16,3.9,19.17,9.1l-5.42,5a15.48,15.48,0,0,0-13.31-6.82c-11.16,0-18.09,8.55-18.09,20.14s6.93,20.24,18.09,20.24a15.74,15.74,0,0,0,13.31-6.82l5.42,5c-4,5.2-9.64,9.1-19.17,9.1C1857.53,516.19,1847,504.28,1847,488.69Z" style="fill:#6d6e71"/><path d="M1902.25,449.71a5.47,5.47,0,1,1,10.94,0,5.47,5.47,0,0,1-10.94,0Zm1.41,65.18v-52.3h8.12v52.3Z" style="fill:#6d6e71"/><path d="M1946.21,514.89V450.68h-22.84v-8h54.78v8h-23v64.21Z" style="fill:#6d6e71"/><path d="M1974.26,488.69c0-15.16,10-27.4,25.88-27.4s25.87,12.24,25.87,27.4-10,27.5-25.87,27.5S1974.26,503.84,1974.26,488.69Zm43.2,0c0-10.61-6.17-20.14-17.32-20.14s-17.44,9.53-17.44,20.14,6.28,20.24,17.44,20.24S2017.46,499.41,2017.46,488.69Z" style="fill:#6d6e71"/><path d="M2036.19,488.69c0-15.16,10-27.4,25.88-27.4s25.88,12.24,25.88,27.4-10,27.5-25.88,27.5S2036.19,503.84,2036.19,488.69Zm43.21,0c0-10.61-6.18-20.14-17.33-20.14s-17.43,9.53-17.43,20.14,6.28,20.24,17.43,20.24S2079.4,499.41,2079.4,488.69Z" style="fill:#6d6e71"/><path d="M2101.16,514.89V442.67h8.12v72.22Z" style="fill:#6d6e71"/><path d="M2121,508l4.22-5.85a23.69,23.69,0,0,0,17.22,7.47c8,0,12.34-3.79,12.34-9,0-12.67-32.38-4.88-32.38-24.26,0-8.12,7-15,19.5-15,8.87,0,15.15,3.36,19.38,7.58l-3.79,5.63c-3.14-3.79-8.88-6.6-15.59-6.6-7.15,0-11.59,3.57-11.59,8.23,0,11.47,32.37,3.89,32.37,24.25,0,8.77-7,15.81-20.57,15.81C2133.54,516.19,2126.28,513.59,2121,508Z" style="fill:#6d6e71"/><rect x="132.96" y="188.89" width="229.61" height="29.36" rx="10.14" style="fill:#fff"/><rect x="132.98" y="308.56" width="229.59" height="29.36" rx="10.14" style="fill:#fff"/><rect x="207.24" y="248.32" width="155.34" height="29.36" rx="8.34" style="fill:#fff"/><rect x="207.24" y="368.8" width="155.34" height="29.36" rx="8.34" style="fill:#fff"/><path d="M377.25,52.55A126,126,0,0,0,277,254.86c2.14,1.59-.46,7.1-3,9.67L151.52,385.21c-7.48,7.48-7.48,9.65,0,17.12l2.48,2.49c7.48,7.48,10.61,7.77,18.08.29L293.52,283.33c2.66-2.66,5.2-5.87,9.16-3.2A126,126,0,1,0,377.25,52.55Zm.86,228.3A101.65,101.65,0,1,1,479.76,179.2,101.65,101.65,0,0,1,378.11,280.85Z" style="fill:#444545;stroke:#444545;stroke-miterlimit:10;stroke-width:9px"/></svg>